# xmcd
#
# Track frame offsets:
#	150
#	12105
#	26177
#	38447
#	54222
#	68187
#	81230
#	92972
#	108490
#	120672
#	132302
#	146460
#	158605
#	169502
#	182062
#
# Disc length: 2556 seconds
#
# Revision: 0
# Processed by: cddbd v1.5.2PL0 Copyright (c) Steve Scherf et al.
# Submitted via: dBpowerAMP V4.0
#
DISCID=bc09fa0f
DTITLE=Jan Rasmussen - Bedre Sent End Aldrig 5
DYEAR=1998
DGENRE=Country
TTITLE0=Livets karrusel
TTITLE1=Mesikan chili
TTITLE2=Jeg kan sagtens smile
TTITLE3=Når lyngen blomstrer
TTITLE4=Smil hvor du kommer frem
TTITLE5=Min barndoms egn
TTITLE6=Din lille fagmand
TTITLE7=Vilde blomster
TTITLE8=En vals med dig
TTITLE9=April
TTITLE10=Luk kun de glade ind
TTITLE11=Livets smukke glæder
TTITLE12=Søde fru Hansen
TTITLE13=Tiden står stille
TTITLE14=En sang til dig
EXTD=Bedre Sent End Aldrig 5
EXTT0=
EXTT1=
EXTT2=
EXTT3=
EXTT4=
EXTT5=
EXTT6=
EXTT7=
EXTT8=
EXTT9=
EXTT10=
EXTT11=
EXTT12=
EXTT13=
EXTT14=
PLAYORDER=
